# xmcd
#
# Track frame offsets:
#	150
#	15445
#	32839
#	53914
#	68120
#	84716
#	103358
#	123559
#	146575
#	163862
#	182618
#	196243
#
# Disc length: 2898 seconds
#
# Revision: 1
# Processed by: cddbd v1.5.2PL0 Copyright (c) Steve Scherf et al.
# Submitted via: audiograbber 1.83.01
#
DISCID=a80b500c
DTITLE=Los Tigres del Norte and Friends - MTV Unplugged
DYEAR=2011
DGENRE=Norteña
TTITLE0=Jefe de jefes
TTITLE1=Contrabando y traición
TTITLE2=Golpes en el corazón feat. Paulina Rubio
TTITLE3=La manzanita
TTITLE4=Mi buena suerte feat. Diego Torres
TTITLE5=Lágrimas del corazón
TTITLE6=La puerta negra
TTITLE7=La mesa del rincón feat. Andrés Calamaro
TTITLE8=Quiero volar contigo feat. Andrés Calamaro
TTITLE9=Somos mas americanos feat. Zach De La Rocha
TTITLE10=La jaula de oro feat. Juanes
TTITLE11=América feat. Calle 13
EXTD=
EXTT0=
EXTT1=
EXTT2=
EXTT3=
EXTT4=
EXTT5=
EXTT6=
EXTT7=
EXTT8=
EXTT9=
EXTT10=
EXTT11=
PLAYORDER=
